<?xml version="1.0" standalone="no"?><!DOCTYPE svg PUBLIC "-//W3C//DTD SVG 1.1//EN" "http://www.w3.org/Graphics/SVG/1.1/DTD/svg11.dtd"><svg t="1635755890560" class="icon" viewBox="0 0 1024 1024" version="1.1" xmlns="http://www.w3.org/2000/svg" p-id="1197" xmlns:xlink="http://www.w3.org/1999/xlink" width="200" height="200"><defs><style type="text/css"></style></defs><path d="M853.333333 955.733333H170.666667c-66.030933 0-102.4-36.369067-102.4-102.4V256c0-4.522667 1.792-8.874667 5.000533-12.066133l170.666667-170.666667A17.015467 17.015467 0 0 1 256 68.266667h597.333333c66.030933 0 102.4 36.369067 102.4 102.4v682.666666c0 66.030933-36.369067 102.4-102.4 102.4z m-665.6-34.133333h648.533334V529.066667H187.733333v392.533333z m-17.066666-426.666667h682.666666a17.066667 17.066667 0 0 1 17.066667 17.066667v408.541867c35.242667-4.829867 51.2-26.112 51.2-67.208534V170.666667c0-47.223467-21.0432-68.266667-68.266667-68.266667h-68.266666v324.266667a17.066667 17.066667 0 0 1-17.066667 17.066666H341.333333a17.066667 17.066667 0 0 1-17.066666-17.066666V102.4h-61.201067L102.4 263.0656V853.333333c0 41.079467 15.957333 62.3616 51.2 67.208534V512a17.066667 17.066667 0 0 1 17.066667-17.066667z m187.733333-85.333333h392.533333V102.4H358.4v307.2z m409.6 204.8H256a17.066667 17.066667 0 1 1 0-34.133333h512a17.066667 17.066667 0 1 1 0 34.133333zM512.853333 358.4H426.666667a17.066667 17.066667 0 0 1-17.066667-17.066667V170.666667a17.066667 17.066667 0 0 1 17.066667-17.066667h86.186666a17.066667 17.066667 0 0 1 17.066667 17.066667v170.666666a17.066667 17.066667 0 0 1-17.066667 17.066667zM443.733333 324.266667h52.053334v-136.533334H443.733333v136.533334z" p-id="1198"></path></svg>